# File created by Blade
# Date/Time:  Mon Sep 22 15:50:36 2014
# Frame Rate: 120.000 fps
#------------------------------------------------------
:FULLY-SPECIFIED
:DEGREES
2173
root 2.449315 37.005768 3.513776 0.851086 -4.478675 2.120956
RightUpLeg 7.442326 -3.683888 -4.558933
RightLeg -4.625240 -0.000000 0.000000
RightFoot -13.221177 -15.636614 15.922292
RightToeBase 14.165479 -0.000000 -0.000000
LeftUpLeg 7.229238 3.600498 0.380886
LeftLeg -3.504115 -0.000000 0.000000
LeftFoot -10.370364 13.864543 -17.706684
LeftToeBase 9.719095 -0.000000 -0.000000
Spine -2.189202 -3.388495 1.285511
RightShoulder 5.735027 -25.245676 -9.939051
RightArm 27.140466 -32.462949 57.772144
RightForeArm 12.245447 0.000000 29.810521
RightHand 2.398909 -0.000000 0.438972
RightHandThumb1 -24.326973 -0.000000 -32.862282
LeftShoulder -20.039802 24.791907 11.466660
LeftArm 112.398269 -68.213285 -141.051205
LeftForeArm -44.185307 -0.000000 101.124970
LeftHand -7.650207 -0.000000 10.087172
LeftHandThumb1 -26.253704 0.000000 33.147579
Head 16.163746 23.698661 6.795840
2174
root 2.452451 37.006792 3.507471 0.855349 -4.420829 2.134512
RightUpLeg 7.434346 -3.733047 -4.570336
RightLeg -4.629302 -0.000000 0.000000
RightFoot -13.126033 -15.722353 15.698409
RightToeBase 13.974685 -0.000000 -0.000000
LeftUpLeg 7.218385 3.585186 0.367318
LeftLeg -3.528280 -0.000000 0.000000
LeftFoot -10.316653 13.834476 -17.666782
LeftToeBase 9.708713 -0.000000 -0.000000
Spine -2.174490 -3.419359 1.280885
RightShoulder 5.782454 -25.179468 -9.967208
RightArm 27.158298 -32.399510 57.684656
RightForeArm 12.274685 -0.000000 29.841352
RightHand 2.500060 -0.000000 0.071303
RightHandThumb1 -24.326973 -0.000000 -32.862282
LeftShoulder -19.967636 24.790551 11.515971
LeftArm 112.249295 -68.250313 -140.893937
LeftForeArm -44.115265 -0.000000 101.109997
LeftHand -7.550082 -0.000000 9.915392
LeftHandThumb1 -26.253704 0.000000 33.147579
Head 16.152500 23.791614 6.732392
2175
root 2.453805 37.007859 3.502545 0.847827 -4.354618 2.141714
RightUpLeg 7.436927 -3.757878 -4.573567
RightLeg -4.609345 -0.000000 0.000000
RightFoot -13.130066 -15.761375 15.693277
RightToeBase 13.951827 -0.000000 -0.000000
LeftUpLeg 7.221151 3.574390 0.365738
LeftLeg -3.553223 -0.000000 0.000000
LeftFoot -10.279997 13.784396 -17.681234
LeftToeBase 9.729815 -0.000000 -0.000000
Spine -2.148243 -3.470388 1.279467
RightShoulder 5.816991 -25.120686 -9.976383
RightArm 27.179849 -32.283409 57.618080
RightForeArm 12.291056 -0.000000 29.887502
RightHand 2.435730 -0.000000 -0.071618
RightHandThumb1 -24.326973 -0.000000 -32.862282
LeftShoulder -19.887300 24.764136 11.572643
LeftArm 112.029584 -68.316877 -140.670846
LeftForeArm -43.944701 -0.000000 101.104693
LeftHand -7.524798 -0.000000 9.742292
LeftHandThumb1 -26.253704 0.000000 33.147579
Head 16.130763 23.882326 6.683917
2176
root 2.455535 37.009214 3.496277 0.850403 -4.297986 2.146265
RightUpLeg 7.438195 -3.788623 -4.572746
RightLeg -4.618993 -0.000000 0.000000
RightFoot -13.130292 -15.812241 15.700978
RightToeBase 13.937985 -0.000000 -0.000000
LeftUpLeg 7.212242 3.559457 0.362744
LeftLeg -3.574338 -0.000000 0.000000
LeftFoot -10.237140 13.748904 -17.672486
LeftToeBase 9.715638 -0.000000 -0.000000
Spine -2.132826 -3.515103 1.285267
RightShoulder 5.851769 -25.066627 -9.986107
RightArm 27.211218 -32.163951 57.566095
RightForeArm 12.283805 0.000000 29.905589
RightHand 2.487397 -0.000000 0.307800
RightHandThumb1 -24.326973 -0.000000 -32.862282
LeftShoulder -19.813576 24.736350 11.615347
LeftArm 111.780174 -68.375965 -140.401555
LeftForeArm -43.877179 -0.000000 101.091393
LeftHand -7.509856 0.000000 9.663569
LeftHandThumb1 -26.253704 0.000000 33.147579
Head 16.102045 23.967762 6.633168
2177
root 2.458396 37.010185 3.489427 0.859989 -4.249944 2.153308
RightUpLeg 7.424584 -3.829698 -4.579761
RightLeg -4.613609 -0.000000 0.000000
RightFoot -13.168573 -15.827621 15.764303
RightToeBase 14.044327 -0.000000 -0.000000
LeftUpLeg 7.193791 3.585745 0.356159
LeftLeg -3.589571 -0.000000 0.000000
LeftFoot -10.189915 13.692269 -17.620790
LeftToeBase 9.752123 -0.000000 -0.000000
Spine -2.127836 -3.567905 1.296631
RightShoulder 5.901224 -24.978688 -10.020216
RightArm 27.162447 -31.986811 57.607917
RightForeArm 12.325307 -0.000000 29.964288
RightHand 2.528938 0.000000 -0.138434
RightHandThumb1 -24.326973 -0.000000 -32.862282
LeftShoulder -19.764925 24.735667 11.627962
LeftArm 111.538503 -68.405728 -140.129638
LeftForeArm -43.698581 -0.000000 101.028721
LeftHand -7.545480 -0.000000 9.508559
LeftHandThumb1 -26.253704 0.000000 33.147579
Head 16.076111 24.075400 6.582622
2178
root 2.459390 37.011084 3.482098 0.873497 -4.207059 2.151998
RightUpLeg 7.406968 -3.881425 -4.574131
RightLeg -4.616705 -0.000000 0.000000
RightFoot -13.161464 -15.841032 15.768289
RightToeBase 14.045482 -0.000000 -0.000000
LeftUpLeg 7.170936 3.568364 0.357488
LeftLeg -3.607100 -0.000000 0.000000
LeftFoot -10.155142 13.679654 -17.593331
LeftToeBase 9.772939 -0.000000 -0.000000
Spine -2.131663 -3.621617 1.312569
RightShoulder 5.958692 -24.891016 -10.032039
RightArm 27.102859 -31.807014 57.643473
RightForeArm 12.324806 0.000000 30.033749
RightHand 2.525703 -0.000000 0.129385
RightHandThumb1 -24.326973 -0.000000 -32.862282
LeftShoulder -19.719816 24.745147 11.632993
LeftArm 111.259253 -68.420906 -139.798297
LeftForeArm -43.684794 -0.000000 100.971699
LeftHand -7.454132 -0.000000 9.474307
LeftHandThumb1 -26.253704 0.000000 33.147579
Head 16.053271 24.149985 6.538703
2179
root 2.464579 37.012258 3.475328 0.883663 -4.178411 2.176227
RightUpLeg 7.392178 -3.900845 -4.599265
RightLeg -4.624384 -0.000000 0.000000
RightFoot -13.154239 -15.884405 15.747276
RightToeBase 14.045379 -0.000000 -0.000000
LeftUpLeg 7.144438 3.557357 0.329012
LeftLeg -3.609790 -0.000000 0.000000
LeftFoot -10.118422 13.659801 -17.594556
LeftToeBase 9.728662 -0.000000 -0.000000
Spine -2.133341 -3.669734 1.306380
RightShoulder 6.008143 -24.807826 -10.050757
RightArm 27.050602 -31.618581 57.695266
RightForeArm 12.441098 -0.000000 30.107838
RightHand 2.582939 -0.000000 -0.308966
RightHandThumb1 -24.326973 -0.000000 -32.862282
LeftShoulder -19.680433 24.757698 11.626660
LeftArm 110.981051 -68.436971 -139.463809
LeftForeArm -43.784808 -0.000000 100.899207
LeftHand -7.529575 -0.000000 9.444198
LeftHandThumb1 -26.253704 0.000000 33.147579
Head 16.034993 24.232631 6.514719
2180
root 2.468169 37.012991 3.469325 0.895961 -4.149857 2.193198
RightUpLeg 7.375985 -3.928969 -4.619259
RightLeg -4.623008 -0.000000 0.000000
RightFoot -13.162207 -15.878514 15.777952
RightToeBase 14.049976 -0.000000 -0.000000
LeftUpLeg 7.121482 3.530415 0.307159
LeftLeg -3.619628 -0.000000 0.000000
LeftFoot -10.090364 13.658615 -17.592531
LeftToeBase 9.738714 -0.000000 -0.000000
Spine -2.141280 -3.702390 1.301628
RightShoulder 6.030670 -24.768085 -10.050568
RightArm 27.011726 -31.357854 57.757456
RightForeArm 12.597671 0.000000 30.184222
RightHand 2.706387 -0.000000 -0.083205
RightHandThumb1 -24.326973 -0.000000 -32.862282
LeftShoulder -19.622765 24.770113 11.634283
LeftArm 110.698373 -68.446969 -139.127402
LeftForeArm -43.955684 -0.000000 100.798402
LeftHand -7.466376 0.000000 9.322941
LeftHandThumb1 -26.253704 0.000000 33.147579
Head 16.005582 24.266672 6.489265
2181
root 2.471113 37.013355 3.463745 0.900988 -4.132398 2.203008
RightUpLeg 7.375886 -3.907223 -4.624095
RightLeg -4.652916 -0.000000 0.000000
RightFoot -13.149212 -15.963418 15.750832
RightToeBase 14.086718 -0.000000 -0.000000
LeftUpLeg 7.108007 3.508123 0.295401
LeftLeg -3.627240 -0.000000 0.000000
LeftFoot -10.083826 13.653258 -17.613299
LeftToeBase 9.754914 -0.000000 -0.000000
Spine -2.137308 -3.723120 1.308031
RightShoulder 6.055195 -24.708301 -10.065610
RightArm 26.968367 -31.144431 57.845148
RightForeArm 12.522329 -0.000000 30.296020
RightHand 2.582006 -0.000000 -0.297810
RightHandThumb1 -24.326973 -0.000000 -32.862282
LeftShoulder -19.547257 24.744500 11.638628
LeftArm 110.348375 -68.508118 -138.704068
LeftForeArm -44.126692 -0.000000 100.675602
LeftHand -7.417230 -0.000000 9.252491
LeftHandThumb1 -26.253704 0.000000 33.147579
Head 15.968653 24.302006 6.466962
2182
root 2.473706 37.013120 3.457610 0.909765 -4.109278 2.215516
RightUpLeg 7.377725 -3.875646 -4.630180
RightLeg -4.690907 -0.000000 0.000000
RightFoot -13.149269 -16.046527 15.743645
RightToeBase 14.083624 -0.000000 -0.000000
LeftUpLeg 7.089370 3.502677 0.280007
LeftLeg -3.635668 -0.000000 0.000000
LeftFoot -10.062947 13.638080 -17.607749
LeftToeBase 9.761340 -0.000000 -0.000000
Spine -2.137244 -3.762894 1.313702
RightShoulder 6.089825 -24.620382 -10.091090
RightArm 26.875715 -30.878835 58.002131
RightForeArm 12.709075 -0.000000 30.354139
RightHand 2.804132 0.000000 -0.352491
RightHandThumb1 -24.326973 -0.000000 -32.862282
LeftShoulder -19.499161 24.742437 11.626314
LeftArm 110.033183 -68.525992 -138.310568
LeftForeArm -44.363414 0.000000 100.539359
LeftHand -7.380323 -0.000000 9.165480
LeftHandThumb1 -26.253704 0.000000 33.147579
Head 15.922950 24.329270 6.434954
2183
root 2.472064 37.013597 3.447492 0.939116 -4.107891 2.202442
RightUpLeg 7.313666 -4.249175 -4.645484
RightLeg -4.655038 -0.000000 0.000000
RightFoot -13.057969 -15.692616 15.675069
RightToeBase 14.106055 -0.000000 -0.000000
LeftUpLeg 7.040755 3.480359 0.297903
LeftLeg -3.622650 -0.000000 0.000000
LeftFoot -10.074835 13.628761 -17.626940
LeftToeBase 9.793999 -0.000000 -0.000000
Spine -2.154435 -3.750901 1.337178
RightShoulder 6.094060 -24.551851 -10.093500
RightArm 26.810327 -30.631595 58.139350
RightForeArm 12.754162 -0.000000 30.444602
RightHand 2.898010 -0.000000 -0.516025
RightHandThumb1 -24.326973 -0.000000 -32.862282
LeftShoulder -19.400343 24.723114 11.630942
LeftArm 109.702886 -68.569714 -137.894147
LeftForeArm -44.621583 -0.000000 100.409175
LeftHand -7.457057 0.000000 9.180093
LeftHandThumb1 -26.253704 0.000000 33.147579
Head 15.876736 24.325528 6.426668
2184
root 2.474007 37.013810 3.441402 0.949062 -4.104849 2.210997
RightUpLeg 7.297224 -4.339928 -4.662748
RightLeg -4.660809 -0.000000 0.000000
RightFoot -13.025592 -15.611690 15.663146
RightToeBase 14.048662 -0.000000 -0.000000
LeftUpLeg 7.023642 3.455007 0.284674
LeftLeg -3.631281 -0.000000 0.000000
LeftFoot -10.058183 13.653217 -17.615208
LeftToeBase 9.771095 -0.000000 -0.000000
Spine -2.158778 -3.766870 1.343496
RightShoulder 6.118230 -24.487304 -10.119177
RightArm 26.767670 -30.420872 58.260858
RightForeArm 12.895804 0.000000 30.529600
RightHand 2.952659 -0.000000 -0.590287
RightHandThumb1 -24.326973 -0.000000 -32.862282
LeftShoulder -19.333027 24.706403 11.623752
LeftArm 109.348649 -68.616053 -137.462682
LeftForeArm -44.804318 -0.000000 100.269027
LeftHand -7.407419 -0.000000 9.088216
LeftHandThumb1 -26.253704 0.000000 33.147579
Head 15.830488 24.311250 6.401332
2185
root 2.476296 37.013621 3.436382 0.949722 -4.106739 2.221530
RightUpLeg 7.300536 -4.337020 -4.675251
RightLeg -4.687253 -0.000000 0.000000
RightFoot -13.024023 -15.622774 15.667951
RightToeBase 14.113749 -0.000000 -0.000000
LeftUpLeg 7.019189 3.452903 0.269308
LeftLeg -3.638661 -0.000000 0.000000
LeftFoot -10.051462 13.645017 -17.650578
LeftToeBase 9.761557 -0.000000 -0.000000
Spine -2.157208 -3.764555 1.349123
RightShoulder 6.126652 -24.440409 -10.142101
RightArm 26.743583 -30.198071 58.382496
RightForeArm 12.884302 -0.000000 30.624575
RightHand 2.955006 -0.000000 -0.677913
RightHandThumb1 -24.326973 -0.000000 -32.862282
LeftShoulder -19.246611 24.681551 11.636095
LeftArm 108.941204 -68.655169 -137.006616
LeftForeArm -44.819668 0.000000 100.126098
LeftHand -7.328348 -0.000000 8.872220
LeftHandThumb1 -26.253704 0.000000 33.147579
Head 15.787115 24.280627 6.373045
